<mxfile host="app.diagrams.net" modified="2020-05-12T08:02:58.590Z" agent="5.0 (Windows NT 10.0; Win64; x64) AppleWebKit/537.36 (KHTML, like Gecko) Chrome/80.0.3987.122 Safari/537.36" etag="ZhXzVk9XlEHFUIthVbxk" version="13.0.9" type="github">
  <diagram id="5LZlTyPBAkwx2AwI9NOy" name="Page-1">
    <mxGraphModel dx="782" dy="437" grid="1" gridSize="10" guides="1" tooltips="1" connect="1" arrows="1" fold="1" page="1" pageScale="1" pageWidth="827" pageHeight="1169" math="0" shadow="0">
      <root>
        <mxCell id="0" />
        <mxCell id="1" parent="0" />
        <mxCell id="CE-JVUQtcYNLhDiKW8DJ-1" value="消息基本信息" style="rounded=0;whiteSpace=wrap;html=1;" vertex="1" parent="1">
          <mxGeometry x="60" y="70" width="120" height="60" as="geometry" />
        </mxCell>
        <mxCell id="CE-JVUQtcYNLhDiKW8DJ-2" value="1、消息授权的key&lt;br&gt;2、消息体&lt;br&gt;3、是否有指定通道信息&lt;br&gt;" style="text;html=1;strokeColor=none;fillColor=none;align=left;verticalAlign=middle;whiteSpace=wrap;rounded=0;" vertex="1" parent="1">
          <mxGeometry x="60" y="10" width="220" height="60" as="geometry" />
        </mxCell>
        <mxCell id="CE-JVUQtcYNLhDiKW8DJ-4" value="消息网关" style="rounded=0;whiteSpace=wrap;html=1;" vertex="1" parent="1">
          <mxGeometry x="60" y="190" width="120" height="60" as="geometry" />
        </mxCell>
      </root>
    </mxGraphModel>
  </diagram>
</mxfile>
